<svg xmlns="http://www.w3.org/2000/svg" width="375" height="85" viewBox="0 0 375 85"
	class="css-1j8o68f">
	<defs id="SvgjsDefs2929"></defs>
	<g class="symbol" featurekey="symbolFeature-0"
		transform="matrix(0.8706707281879352,0,0,0.8706707281879352,-5.289119829773655,-3.403844763397815)" fill="#ffffff">
		<title xmlns="http://www.w3.org/2000/svg">27</title>
		<g xmlns="http://www.w3.org/2000/svg" data-name="Group">
			<path data-name="Compound Path"
				d="M83.8,64.5a10.2,10.2,0,0,0,0-20.3h0L73.3,21.8a10.2,10.2,0,1,0-16.9-7.6L25.8,18.3a10.2,10.2,0,1,0-9.4,14h.2l-.2,29.3h-.1a10.2,10.2,0,1,0,8.5,15.8l26,11.7a10.2,10.2,0,1,0,18.9-7.4L81.4,64.2A10.1,10.1,0,0,0,83.8,64.5ZM92,54.3a8.2,8.2,0,1,1-8.2-8.2A8.2,8.2,0,0,1,92,54.3ZM66.6,6a8.2,8.2,0,1,1-8.2,8.2A8.2,8.2,0,0,1,66.6,6ZM60.3,75.7a10.1,10.1,0,0,0-7.6,3.4l-15.5-27L59.9,21.8a10.1,10.1,0,0,0,4.7,2.4l-.3,52.4A10.1,10.1,0,0,0,60.3,75.7ZM56.6,16.1a10.1,10.1,0,0,0,1.9,4.1L36.1,50.2,23.9,29a10.1,10.1,0,0,0,2.4-8.7Zm-48.4,6a8.2,8.2,0,1,1,8.2,8.2A8.2,8.2,0,0,1,8.2,22.2Zm10.3,9.9a10.1,10.1,0,0,0,3.9-1.8L34.8,51.9,24.4,65.8a10.2,10.2,0,0,0-6.1-3.9ZM16.2,80a8.2,8.2,0,1,1,8.2-8.2A8.2,8.2,0,0,1,16.2,80Zm9.4-4.3a10.1,10.1,0,0,0-.1-8L35.9,53.8l15.5,27a10.1,10.1,0,0,0-1.3,5c0,.3,0,.6,0,.9ZM60.3,94a8.2,8.2,0,1,1,8.2-8.2A8.2,8.2,0,0,1,60.3,94Zm8.2-14.1a10.2,10.2,0,0,0-2.2-2.2l.3-53.3h0A10.1,10.1,0,0,0,71.7,23L81.7,44.4a10.2,10.2,0,0,0-2.2,19.1Z">
			</path>
		</g>
	</g>
	<g class="symbol" featurekey="nameFeature-0"
		transform="matrix(1.7910963552176387,0,0,1.7910963552176387,96,-4.343842686097609)" fill="#ffffff">
		<path
			d="M13.12 20.44 l2.32 0 l0 19.56 l-1.16 0 c-7.88 0 -14.28 -6.44 -14.28 -14.32 s6.4 -14.28 14.28 -14.28 l1.16 0 l0 1.16 l-1.16 0 c-7.24 0 -13.12 5.88 -13.12 13.12 s5.88 13.12 13.12 13.12 l0 -17.16 l-1.16 0 l0 -1.2 z M30.394999999999996 21.16 c0 3.72 -2.04 6.96 -5.08 8.6 l5.08 10.24 l-1.32 0 l-4.84 -9.76 c-1.04 0.44 -2.2 0.68 -3.4 0.68 l-0.2 0 l0 9.08 l-1.16 0 l0 -28.6 l1.36 0 c5.28 0 9.56 4.36 9.56 9.76 z M20.634999999999998 12.559999999999999 l0 17.2 l0.2 0 c4.64 0 8.4 -3.88 8.4 -8.6 c0 -4.76 -3.76 -8.6 -8.4 -8.6 l-0.2 0 z M48.43 40 l-1.12 -4.52 l-10.96 0 l-1.12 4.52 l-1.2 0 l7.08 -28.6 l1.44 0 l7.08 28.6 l-1.2 0 z M36.63 34.28 l10.4 0 l-5.2 -20.88 z M55.025 11.399999999999999 c5.28 0 9.56 4.36 9.56 9.76 c0 5.36 -4.28 9.76 -9.56 9.76 l-0.2 0 l0 9.08 l-1.16 0 l0 -28.6 l1.36 0 z M55.025 29.759999999999998 c4.64 0 8.4 -3.88 8.4 -8.6 c0 -4.76 -3.76 -8.6 -8.4 -8.6 l-0.2 0 l0 17.2 l0.2 0 z M78.38000000000001 11.399999999999999 l1.16 0 l0 28.6 l-1.16 0 l0 -18.32 l-8.6 0 l0 18.32 l-1.16 0 l0 -28.6 l1.16 0 l0 9.04 l8.6 0 l0 -9.04 z M96.495 40 l-12.92 0 l0 -3.68 c0 -4.2 3.28 -7.04 6.48 -9.76 c3 -2.56 5.84 -5 5.84 -8.36 c0 -3.44 -2.8 -6.24 -6.24 -6.24 c-1.96 0 -3.84 0.96 -5.04 2.6 l-0.92 -0.72 c1.36 -1.88 3.6 -3.04 5.96 -3.04 c4.08 0 7.4 3.32 7.4 7.4 c0 3.88 -3.16 6.6 -6.24 9.24 c-3.12 2.68 -6.08 5.2 -6.08 8.88 l0 2.48 l11.76 0 l0 1.2 z M114.21000000000001 20.44 l2.32 0 l0 19.56 l-1.16 0 c-7.88 0 -14.28 -6.44 -14.28 -14.32 s6.4 -14.28 14.28 -14.28 l1.16 0 l0 1.16 l-1.16 0 c-7.24 0 -13.12 5.88 -13.12 13.12 s5.88 13.12 13.12 13.12 l0 -17.16 l-1.16 0 l0 -1.2 z M133.685 11.399999999999999 l1.16 0 l0 28.6 l-1.16 0 l0 -5.16 c-0.2 -9.16 -4.88 -17.2 -11.96 -22.04 l0 27.2 l-1.16 0 l0 -28.6 l1.16 0 c5.72 3.64 10 9.28 11.96 15.96 l0 -15.96 z M152 11.399999999999999 l1.16 0 l0 28.6 l-1.16 0 l0 -5.16 c-0.2 -9.16 -4.88 -17.2 -11.96 -22.04 l0 27.2 l-1.16 0 l0 -28.6 l1.16 0 c5.72 3.64 10 9.28 11.96 15.96 l0 -15.96 z">
		</path>
	</g>

	<style>
		 /* .symbol{ */
			/* fill: #546d78; */
			/* stroke: #546d78; */
			/* stroke-width: .15rem; */
		/* }  */

		.symbol{
			fill: #ffffff;
			stroke: #ffffff;
			/* stroke-width: .15rem; */
		}
	</style>
</svg>